PathFileType	4	(X/Y/Z)	D:\TRACE\v60_Jaco2_6-2-23\BothDRS_Motion2_4-platform.trc
DataRate	CameraRate	NumFrames	NumMarkers	Units	OrigDataRate	OrigDataStartFrame	OrigNumFrames
100.00	100.00	      60	5	mm	100.00	1876	      7500
Frame#	Time	Left_Front			Right_Front			Left_Aft			Right_Aft			Post			
		X1	Y1	Z1	X2	Y2	Z2	X3	Y3	Z3	X4	Y4	Z4	X5	Y5	Z5	

1876	18.750	-772.03070	10.55092	-638.76099	798.09680	11.74901	-644.06738	-679.94275	6.43676	496.37085	762.50775	6.02039	505.69403	14.50529	1310.52026	-967.44775	
1877	18.760	-770.94623	12.46916	-638.32031	799.09918	13.54442	-643.65631	-678.97998	5.54048	496.66275	763.42438	4.95649	506.26361	15.54515	1312.73132	-964.21167	
1878	18.770	-769.70697	13.81458	-637.91876	800.12799	14.91123	-643.43750	-677.89984	4.48542	497.13962	764.48224	3.86627	506.51028	16.24689	1315.22949	-960.79681	
1879	18.780	-768.68945	15.61681	-637.73077	801.15771	16.59764	-643.00275	-676.68848	3.33426	497.53006	765.34790	2.82360	506.83359	17.60953	1317.36890	-957.35168	
1880	18.790	-767.95227	16.74664	-637.29565	802.24988	18.03199	-642.69385	-675.96912	2.48413	497.74594	766.01172	1.77778	507.24139	18.68028	1319.43726	-953.68610	
1881	18.800	-767.12549	18.10486	-636.87750	802.99341	19.39545	-642.20026	-675.04559	1.19057	498.07101	767.34180	0.62192	507.66519	19.48590	1321.60730	-949.77496	
1882	18.810	-766.04803	20.01299	-636.59064	804.07037	20.95492	-641.82880	-674.02081	0.25838	498.43518	768.36694	-0.52022	507.79330	20.62949	1323.77014	-945.71490	
1883	18.820	-765.08527	21.36396	-636.02454	805.04004	22.49416	-641.47644	-672.90814	-0.97120	498.71179	769.29840	-1.51124	508.14182	21.71150	1325.94275	-941.53613	
1884	18.830	-764.06116	22.84380	-635.60986	806.02686	24.02176	-641.07056	-672.27332	-1.78581	499.13956	770.27008	-2.70485	508.38034	22.45690	1328.24988	-937.14441	
1885	18.840	-763.36053	24.62432	-635.40082	806.68329	25.68699	-640.70709	-671.15411	-3.03241	499.26297	771.01813	-3.77173	508.92032	23.29375	1330.42017	-932.08496	
1886	18.850	-762.47638	26.09049	-634.97070	807.59045	27.12772	-640.22882	-670.34967	-4.18401	499.71237	771.78900	-4.93752	509.39313	23.85539	1332.78650	-927.28424	
1887	18.860	-761.67023	27.86328	-634.45386	808.38086	28.68262	-639.86243	-669.63007	-5.23874	500.22516	772.95050	-6.07826	509.68604	24.74082	1334.84705	-922.34784	
1888	18.870	-760.74268	29.23075	-633.97870	809.30890	30.18864	-639.53571	-668.57739	-6.45032	500.60120	773.83350	-7.12369	509.98544	25.82840	1337.19324	-916.85907	
1889	18.880	-759.90527	30.57603	-633.52423	810.09338	31.75820	-638.95135	-667.69305	-7.29160	500.83466	774.37689	-8.31603	510.36981	26.64456	1339.23267	-911.93433	
1890	18.890	-759.05579	32.37503	-633.54309	810.90210	33.47921	-638.57214	-666.88708	-8.49022	501.21219	775.27686	-9.27450	510.83337	27.01298	1341.64746	-907.61353	
1891	18.900	-758.49231	33.77981	-632.83386	811.60974	34.74755	-638.13922	-666.49915	-9.32137	501.46344	776.07953	-10.24546	511.25574	27.69831	1343.51501	-904.47607	
1892	18.910	-757.56140	34.73953	-632.31311	812.44897	36.20355	-637.70197	-665.44562	-10.66110	501.92273	776.64642	-11.57921	511.61514	28.14214	1345.72192	-901.65784	
1893	18.920	-756.91876	36.54317	-631.99097	813.04620	37.61351	-637.48364	-664.93506	-11.44367	502.06815	777.47748	-12.75900	512.07458	29.33566	1347.44373	-899.26044	
1894	18.930	-756.16296	38.02678	-631.77649	813.77393	38.91293	-637.07440	-664.09210	-12.66090	502.32156	778.42175	-13.52730	512.25763	29.98913	1349.39392	-897.54523	
1895	18.940	-755.73267	39.08840	-630.93677	814.50519	40.38410	-636.62146	-663.63647	-13.32935	502.60110	779.36981	-14.33562	512.36139	30.98028	1351.45264	-895.90179	
1896	18.950	-755.15277	40.87442	-630.99518	815.10229	41.76116	-636.39740	-662.73590	-14.51230	502.94348	779.50208	-15.41761	512.88660	31.33851	1353.32434	-894.33417	
1897	18.960	-754.47894	42.10408	-630.43872	815.81970	43.03779	-635.69641	-662.25525	-15.35658	503.13232	780.34192	-16.56968	513.30872	32.19860	1355.18591	-891.97522	
1898	18.970	-753.86200	43.23470	-629.94110	816.29193	44.42038	-635.35535	-661.67883	-16.42289	503.38913	780.85437	-17.38954	513.62927	33.17899	1357.11841	-889.53894	
1899	18.980	-753.13184	44.81000	-629.71674	816.67853	45.66632	-635.09741	-661.03082	-17.46764	503.69061	781.67145	-18.21628	513.67151	33.60197	1358.92688	-887.03046	
1900	18.990	-752.57330	46.09236	-629.32343	817.38348	47.01300	-634.65479	-660.69116	-18.21158	504.09497	782.19452	-19.45995	514.00098	34.34562	1360.85303	-884.04419	
1901	19.000	-752.18317	47.28718	-628.78961	817.94012	48.39828	-634.22388	-660.01215	-19.23707	504.32050	782.77032	-20.16409	514.45087	34.55643	1362.61780	-880.88977	
1902	19.010	-751.70929	48.98873	-628.73352	818.23645	49.59246	-633.92065	-659.73499	-19.92020	504.44562	783.17072	-21.27285	514.61377	35.19512	1364.51709	-877.49933	
1903	19.020	-751.50439	49.90266	-628.22607	818.61029	50.85302	-633.48651	-659.22058	-21.09559	504.76654	782.84052	-22.43026	514.95996	34.79997	1365.82166	-874.03296	
1904	19.030	-751.02216	50.98289	-627.89294	818.87738	51.80994	-633.09125	-658.87555	-21.88655	505.05435	783.42896	-23.28616	515.27679	35.63887	1367.35962	-869.78705	
1905	19.040	-750.76447	52.11928	-627.70392	819.18195	53.13935	-632.89899	-658.64948	-22.76637	505.20450	783.84015	-23.84314	515.44574	35.59033	1368.97693	-865.76678	
1906	19.050	-750.46588	53.64022	-627.26929	819.32056	54.42472	-632.53430	-658.43085	-23.39663	505.38190	784.16187	-24.80300	515.41089	35.85001	1370.51440	-861.47833	
1907	19.060	-750.44830	54.56548	-626.81256	819.55518	55.68566	-632.02448	-658.31305	-24.11697	505.52930	783.80591	-25.96881	515.85852	36.14184	1371.78381	-857.29010	
1908	19.070	-750.10815	55.52592	-626.46082	819.74689	56.72054	-631.90839	-658.16229	-25.00657	505.84714	783.05737	-25.24275	519.05365	36.21579	1373.17273	-854.62048	
1909	19.080	-750.01654	56.42519	-626.17169	819.80029	57.28464	-631.66248	-658.07544	-25.63814	506.01666	783.40027	-26.98961	518.36017	36.06543	1374.75037	-852.49634	
1910	19.090	-749.95886	57.21769	-626.05450	819.93463	58.36469	-631.05341	-658.15015	-26.04206	506.20828	783.07562	-27.93475	518.09924	36.79490	1375.76453	-850.55365	
1911	19.100	-750.05627	58.61383	-625.48462	819.72150	59.34668	-630.99670	-658.12695	-26.65031	506.47296	784.19739	-28.69372	517.11884	36.77508	1377.36523	-850.04858	
1912	19.110	-750.16711	59.37999	-624.96710	819.80243	60.53970	-630.43475	-658.10199	-27.83050	506.65067	784.49561	-29.78069	517.12091	36.74306	1378.82251	-849.45105	
1913	19.120	-750.20068	60.35118	-624.56299	819.92224	61.20749	-630.14172	-658.22449	-28.27290	506.74307	784.87610	-29.89772	518.58496	36.39455	1380.06165	-848.65027	
1914	19.130	-750.29980	61.25042	-624.45593	819.93872	62.31281	-630.01770	-658.14783	-28.86438	506.94464	783.59235	-31.98333	515.16949	36.70500	1381.57825	-847.27087	
1915	19.140	-750.24432	62.05242	-624.29565	819.80066	63.13036	-629.70880	-658.13824	-29.73099	507.13052	783.57874	-32.71117	515.21863	37.03058	1382.49939	-845.84680	
1916	19.150	-750.31146	62.88647	-623.94250	819.54724	63.76757	-629.46948	-658.55756	-29.89019	506.83307	783.79236	-33.15268	515.48615	36.69267	1383.70776	-844.05719	
1917	19.160	-750.57196	63.86420	-623.74298	819.20013	64.53215	-629.16150	-658.37860	-30.86256	507.25531	783.71118	-33.47988	515.85950	36.58073	1384.51392	-841.97253	
1918	19.170	-750.84222	64.77527	-623.43018	819.20068	65.50194	-628.68945	-658.61749	-31.47851	507.45642	783.44464	-33.74834	516.43420	36.09933	1385.74304	-839.74414	
1919	19.180	-751.17731	65.38274	-623.39758	818.76379	66.34964	-628.57166	-659.02533	-31.55271	507.34393	783.12787	-34.17022	516.82971	35.82394	1386.37683	-836.88635	
1920	19.190	-751.51306	65.89187	-623.36066	818.53375	66.72260	-628.40259	-659.65271	-32.36845	507.74130	782.69562	-34.92117	516.68286	35.43665	1387.00073	-833.69366	
1921	19.200	-751.85632	66.47871	-623.03259	818.07397	67.11697	-628.22845	-659.86438	-32.83480	508.05417	781.85040	-35.83879	516.08099	34.54586	1387.80066	-830.91235	
1922	19.210	-752.23962	67.13975	-622.49884	817.81238	67.76683	-628.00940	-660.08368	-33.32161	508.17160	781.68231	-36.30019	516.11139	34.59647	1388.64856	-828.66016	
1923	19.220	-752.47919	67.62997	-622.16058	817.47766	68.74405	-627.73816	-660.49878	-33.51266	508.23950	781.43542	-36.69672	516.31439	34.41777	1389.45410	-826.47455	
1924	19.230	-752.97827	68.16582	-621.89679	817.00549	69.38921	-627.65955	-660.90405	-34.07993	508.30313	781.04242	-37.08617	516.55267	33.80592	1390.13794	-825.37854	
1925	19.240	-753.28906	68.71085	-621.87738	816.59821	69.81573	-627.49939	-661.03711	-34.37078	508.39291	780.78101	-37.35700	516.90302	33.14291	1391.05457	-824.97644	
1926	19.250	-753.54443	69.23287	-621.89496	816.09991	70.19409	-627.31152	-661.58160	-35.04540	508.29562	780.54913	-37.61908	517.16962	32.71461	1391.63599	-824.64642	
1927	19.260	-754.08850	69.93909	-621.78198	815.63239	70.59541	-627.04846	-662.15436	-35.32235	508.51346	779.47156	-38.37554	516.71765	32.44112	1392.24976	-824.35309	
1928	19.270	-754.68536	70.48946	-621.70905	815.26758	70.94759	-626.90515	-662.59564	-35.59989	508.64740	778.79425	-38.73511	516.76385	32.33125	1392.98596	-824.48126	
1929	19.280	-755.38770	70.91113	-621.63544	814.76990	71.29059	-626.78522	-663.02887	-35.78577	508.69827	778.60028	-38.73101	517.23688	32.09947	1393.36108	-824.26233	
1930	19.290	-755.87378	71.07113	-621.42987	814.22363	71.64447	-626.73584	-663.48254	-36.33994	508.88846	778.49579	-38.75074	517.58038	31.42990	1393.80750	-823.56567	
1931	19.300	-756.23779	71.19653	-621.22223	813.80457	71.89181	-626.62384	-663.66974	-36.71760	508.90329	778.10425	-39.03114	517.50793	30.80173	1394.17004	-822.73029	
1932	19.310	-756.64221	71.53843	-621.09314	813.22980	72.13151	-626.50885	-664.33600	-36.50209	508.86520	777.25140	-39.40318	517.39111	30.02826	1394.46655	-821.51294	
1933	19.320	-757.09290	71.68800	-621.02032	812.57428	72.46638	-626.44128	-665.29968	-36.48523	508.83362	776.34558	-39.99193	516.83307	29.60884	1394.81616	-819.89557	
1934	19.330	-757.82965	71.94965	-620.93372	812.12811	72.69128	-626.34436	-666.10596	-36.30702	508.91922	775.88257	-40.06501	517.06866	29.35366	1395.08838	-818.86743	
1935	19.340	-758.61859	72.05866	-620.88031	811.70776	72.92659	-626.30249	-666.46063	-36.57716	509.04718	775.63196	-39.79728	517.79883	28.39858	1395.22388	-817.57800	
